<?xml version="1.0" encoding="utf-8"?>
<!-- Generator: Adobe Illustrator 22.0.0, SVG Export Plug-In . SVG Version: 6.00 Build 0)  -->
<svg version="1.1" id="Layer_1" xmlns="http://www.w3.org/2000/svg" xmlns:xlink="http://www.w3.org/1999/xlink" x="0px" y="0px"
	 viewBox="0 0 250 259" style="enable-background:new 0 0 250 259;" xml:space="preserve">
<style type="text/css">
	.st0{fill:#2EA76D;}
	.st1{fill:#37AA72;}
	.st2{fill:#2FA76D;}
	.st3{fill:#2DA76C;}
	.st4{fill:#2DA76D;}
	.st5{fill:#31A86F;}
	.st6{fill:#2CA66C;}
	.st7{fill:#42AF7A;}
</style>
<g id="jamiyalogo.psd">
	<path class="st1" d="M160.7,254.4c-0.1-1.4-1.3-2.5-1.3-4.1c1.7-0.6,3.4-1.1,5.2-1.5c0.7-0.1,1.1,0,1.4,0.6c0.5,0.9,1,1.9,1.3,2.9
		c-1.4,0.6-2.8,1-4.3,1.4c-0.7,0.2-1.4,0.1-1.9,0.8H160.7z"/>
	<path class="st2" d="M73.4,73.7c-3,4.2-5.8,8.5-8.4,13.1c-6.4,11.6-9.2,24.8-8,37.9c1.7,18.9,9,35.2,22.9,48.3
		c6.6,6,14.1,10.9,22.3,14.5c0.4,0.2,0.9,0.6,1.6,0.3c0.1-1.5-0.7-2.8-0.8-4.4c0.8-0.4,1.4,0.5,2.2,0c-0.4-2.1-1.5-4.1-2.2-6.2
		c0.9-0.5,1.8,0.4,2.8-0.1c-0.5-2.3-1.8-4.3-2.4-6.6c1,0,1.4,0.9,2.3,0.9c-0.3-2-2-3.3-2.4-5.2c0.8-0.6,1.7,0.3,2.6-0.2
		c-0.3-1.5-0.9-2.8-1.7-4.1c-0.3-0.6-0.9-0.4-1.4-0.4c-2.7,0.2-5.3,0.7-7.9,1.5c-3.1,0.9-6.2,2.2-9,3.9c-0.6,0.5-1.5,0.5-2.1-0.2
		c0,0-0.1-0.1-0.1-0.2c-1.7-1.9-3.3-3.9-5-5.8c-0.5-0.6-0.7-1.5-0.5-2.2l1-12.5c0.5-5.9,0.9-11.8,1.4-17.6
		c0.5-5.8,0.9-11.6,1.3-17.4c0-0.8,0.5-1.5,1.3-1.6c3.9-1.3,8-2,12.1-2.2c0.7,0.1,1.4,0,2-0.3c-0.4-0.9-0.8-1.8-1.3-2.6
		c-0.3-0.7-1-1.3,0.1-2c0.5-0.3,0.1-0.9-0.1-1.2c-0.6-1.1-1.3-2.1-2-3.2c-0.2-0.3-0.5-0.8,0-1c1.1-0.5,0.6-1.1,0.2-1.7
		c-1.1-1.5-2.2-3-3.3-4.5c0.5-0.6,1.2,0,1.6-0.4c0.1-0.1,0.1-0.4,0-0.5c0,0,0,0,0,0c-0.9-1.2-1.9-2.3-2.8-3.5
		c-0.2-0.3-0.7-0.7-0.3-1c1.2-0.8,0.2-1.5-0.1-2.2c-0.4-0.9-1-1.7-1.5-2.5c-0.2-0.3-0.5-0.7-0.4-0.9c1.1-1.5-0.4-2.2-0.9-3.2
		c-0.2-0.4-0.5-0.8-0.8-1.1c-0.1-0.2-0.4-0.5-0.4-0.7c0.8-1.5-0.6-2.2-1.2-3.2c-0.1-0.2-0.4-0.4-0.4-0.6c-0.3-2.7-2.6-4.3-3.3-6.8
		c-0.6-1.5-1.5-3-2.6-4.1c-0.4-0.6-1.1-0.7-1.7-0.4c-1.4,0.4-2.5,1.4-3.3,2.6c-0.4,0.8-0.8,1.4-1.4,2.4l-1.4-2.7
		c-1.4,2.6-0.9,5-0.9,7.5c-1,0.2-1.5-1.1-2.6-0.8L67,72c-0.4,0.5-1-0.1-1.3,0.3s-0.1,1-0.1,1.5c0.2,0.9,0.3,1.8,0.2,2.7
		c-3.1-0.5-5.1-3.3-4.8-6.8c0.3-3.4,1.9-6.6,4.5-8.9c1.2-1.1,2.5-2.1,3.9-3c0.5-0.3,1.2-0.5,1.5-1.3c-3.6,0.5-6.3,2.4-8.9,4.6
		c-0.2-0.1-0.4-0.2-0.5-0.3c-0.9-1.5-0.9-1.5-2.2-0.5c-1.5,1.2-2.9,2.6-4.1,4.3c-0.4,0.8-1,1.4-1.7,2c-0.8-0.4-0.8-1.5-1.7-2
		c-1.2,0.9-1.7,2.3-2.4,3.6s-1.3,2.6-1.9,3.9c-0.7-0.4-0.6-1.3-1.3-1.5c-1.5,2-1.8,4.4-2.6,6.7c-0.4-0.1-0.4-0.5-0.4-0.7
		c-0.1-6.1,1.2-11.7,4.8-16.7c3.5-4.8,8.3-7.3,13.9-8.5c1.8-0.4,3.6-0.7,5.4-0.8c0.7-0.1,1.4-0.2,2.5-0.4c-4-3.1-8.2-3.7-12.7-3.4
		c-0.2-1.1,0.7-1.8,0.6-2.9c-2.4-0.3-4.3,1-6.4,1.9L51,43.9c-2,0.3-2.8,2.1-4,3.3c-0.8-0.5-0.9-1.5-1.8-1.9c-2.3,2-2.9,5-3.7,7.8
		c-0.4-0.1-0.5-0.4-0.6-0.6c-0.4-0.7-0.8-0.5-1.2,0c-0.7,1-1.2,2.2-1.6,3.4c-0.1,0.3-0.3,0.6-0.5,0.9c-0.9-4.3-1.1-8.4,1.8-12.1
		c3.1-4,7.3-6.1,12.2-7c3.5-0.5,7-0.3,10.3,0.6c0.9,0.4,1.8,0.5,2.8,0.5c-0.8-0.9-1.7-1.7-2.8-2.2c-1.6-1-3.4-1.7-5.2-2.2
		C56,34,55.4,33.8,55.3,33s-0.7-1-1.4-0.8c-1,0.2-1.9,0.5-2.8,0.8c-0.5,0.2-0.9,0.5-1.5,0.4l-0.2-2c-0.8-0.2-1.7,0.1-2.3,0.7
		c-0.7,0.5-1.3,1-2,1.6c-0.9-2.9,0.7-5.9,3.6-6.8c2-0.8,4.2-0.9,6.4-0.5c3.2,0.6,6,2.3,8.7,4c0.9,0.5,1.8,1.1,2.9,1.8
		c0.9-4.8,2.7-8.8,7-11.2c3.6-2,7.3-2.2,11.3-1.9c-0.2,0.6-0.8,0.7-1.2,0.9c-0.9,0.5-1.8,0.9-2.6,1.3c-0.3,0.2-0.7,0.5-0.5,0.7
		c0.9,1.5-0.6,1.7-1.3,2.3c-1,0.9-2.5,1.3-2.4,3.1c0,0.5-0.6,0.8-1,1.2c-1.6,1.4-2.7,3.4-3,5.5c0.8,0,1.6-0.3,2.3-0.8
		c3.2-1.6,6.9-2.3,10.5-2c6.4,0.3,11,4.3,12.2,10.9c-1.2-0.9-1.9-2.2-3.4-2.5c-0.5,0.8-0.2,1.6-0.5,2.7c-1.4-1.8-3.2-3.1-5.4-3.8
		c-0.4,0.8,0.3,1.5-0.1,2.2c-1.4-0.2-2.8-1.3-4.5-1l0.6,2.5c-0.7,0.2-1.3,0.2-2,0.1c-1,0-2.1,0-3.1,0.1c-2.7,0.4-4,2.2-3.6,5.1
		c0.8,0.3,1.2-0.4,1.7-0.7c6.5-4.1,13-3.7,19.6-0.3c3.9,2.1,6,5.6,6.8,10.5c-1-1.3-1.5-2.8-2.9-3.5c-0.4,0.6-0.1,1.2-0.4,2.1
		c-1.5-2.5-3.3-4.5-6.2-5c-0.4,0.8-0.1,1.5-0.4,2.2c-1.8-0.4-3.6-1.3-5.6-1.3c-1.9-0.2-3.7,0.5-5.1,1.8c1.3,0,2.7,0.1,4,0.2
		c4.6,0.4,8.4,2.1,10.9,6.1c1.5,2.5,2.5,5.3,2.7,8.2c-1.5-1.7-2-3.9-4.2-4.5L96,65.9c-1.5-1.7-2.3-3.8-4.4-4.7
		c-0.4,0.7-0.1,1.4-0.4,2.4c-1-1.4-2.2-2.8-3.5-4c-1.4-1.1-2.8-2.1-4.8-2c0.3,1,1.2,1.7,2.2,1.8c0.6,0,1.1,0.5,1.2,1.1
		c0.2,0.6,0.3,1.3,0.5,1.9c0.3,0.9,0.2,2,1.7,1.9c0.3,0,0.5,0.3,0.6,0.7c0.1,0.6,0.2,1.2,0.3,1.7c0.3,1.5,0.3,1.6,1.9,1.5
		c0.7-0.1,0.9,0.3,1,0.9c0.2,1.3,0.5,2.6,0.7,3.9c0.3,1.6,0.3,1.6,1.9,1.2c0.8,1.8,0.7,3.8,1.4,5.7l1.4-0.5c0.4,0.1,0.4,0.3,0.4,0.4
		c0.2,1.4,0.4,2.8,0.7,4.3c0.1,0.4,0.1,1,0.8,0.8c0.9-0.2,1,0.2,1,0.9c0.1,1.4,0.2,2.8,0.3,4.1c0,0.4,0,1,0.7,0.9
		c1.1-0.2,1.2,0.5,1.2,1.3c0,1.1,0.1,2.2,0.1,3.3c0,0.7,0.1,1.3,1,1.3c0.7,0,0.8,0.4,0.8,1c0,1.3,0,2.6,0.1,3.9c0,0.6,0.1,1,0.8,1
		s0.8,0.5,0.7,1c0,0.1,0,0.1,0,0.2c-0.1,1-0.8,2-0.2,2.8s1.8,0.3,2.7,0.3c6.2,0.6,12.3,2.2,17.9,4.9c1.5,0.7,3.3,0.8,4.9,0.1
		c5.7-2.1,11.7-3,17.8-2.7h0.8c1.5,0,1.5,0,1.5-1.5c0-1-0.1-2-0.2-2.9c0-0.3-0.1-0.8,0.4-0.7c1.2,0.1,1-0.7,1.1-1.4
		c0.1-1.2,0.3-2.5,0.5-3.7c1.7,0,1.7,0,1.8-1.7c0.1-1.3,0.3-2.6,0.4-3.9c0-0.4,0.1-0.8,0.7-0.6c0.9,0.3,1-0.3,1.1-0.9
		c0.4-1.9,0.1-3.8,0.3-5.7c0.9-0.3,1.3,0.6,2.2,0.6c0.7-1.7,0.2-3.6,0.6-5.3c0.7-0.3,1.1,0.4,1.8,0.2l1-6c0.8-0.2,1,0.5,1.6,0.6
		c0.1-0.1,0.3-0.2,0.3-0.4c0.3-1.2,0.5-2.4,0.8-3.7c0.1-0.6,0.3-1.4,1.2-1.3s1.2-0.4,1.2-1.3c0-0.5,0.1-0.9,0.1-1.4s0.3-0.9,0.8-0.9
		c0.9,0,1.3-0.6,1.5-1.3c0.1-0.6,0.6-1.1,1.3-1.2c1.2-0.3,1.1-1.6,1.8-2.5c-1.1-0.4-1.8,0.2-2.5,0.5c-1.2,0.7-2.3,1.7-3.1,2.9
		c-1.3,1.7-1.6,1.6-2.4-0.3c-0.1-0.1-0.1-0.2-0.2-0.4c-1.7,0.8-1.9,3.3-4,3.8c-0.4-0.9,0-1.9-0.7-2.7c-1.6,1.1-2.4,2.9-4.1,4.3
		c-0.5-2.9,0.3-5.8,2.1-8.1c4-4.9,9-6.8,15.4-4.7c-0.1-0.5-0.4-0.9-0.9-1.1c-2.4-1.4-5-2-7.7-1.1c-1.8,0.6-1.8,0.6-2.8-1
		c-1.5,0.8-2.9,1.7-4.1,2.9c-0.4,0.4-0.7,0.7-1.2,0s-1-0.3-1.3,0.1c-0.6,0.5-1.1,1.2-2,2c0-2.9,1-5.7,3-7.8
		c3.6-3.8,8.2-4.8,13.1-3.8c3.3,0.7,6.5,2.1,9.3,4.1c0.3,0.3,0.7,0.5,1.2,0.7c0.7-2.8-1.1-5.6-3.9-6.3c-0.2,0-0.4-0.1-0.6-0.1
		c-0.5,0-0.9,0-1.4,0c-1.4,0-1.4,0-1.3-1.3s-0.1-1.4-1.4-1.2c-1.1,0.3-2.1,0.7-3.1,1.2c-0.5-0.9,0.4-1.8,0-2.8c-2.2,0.1-3.5,1.8-5,3
		c-0.4-0.7,0-1.5-0.5-2.2c-1.6,0.7-2.6,2.1-4.3,3.2c0.2-3.5,1.3-6.3,4.1-8.1c4.8-3.3,11.1-3.6,16.2-0.8c1.6,0.8,3,1.8,4.5,2.8
		c0.5-2.2-0.4-3.8-3.6-6.8c0.8-1.4,0.8-1.7-0.3-2.8c-0.3-0.3-0.6-0.5-0.9-0.8c-1-0.7-2.1-1-2.4-2.6c-0.1-0.9-1.3-1.4-2.1-1.9
		c-0.8-0.4-1.6-0.8-2.2-1.5c2.5-0.7,5.2-0.5,7.6,0.6c5.1,2.1,8.3,6,10.1,11.2c0.1,0.8,0.4,1.5,0.7,2.2c0.7,0.1,1-0.3,1.4-0.7
		c3.7-2.9,8.5-3.9,13-2.6c3.4,1.1,5.7,4.3,5.7,7.9c0,0.3,0,0.7-0.4,0.8c-0.3,0.1-0.7-0.1-0.8-0.4c-0.5-1.1-1.4-1.9-2.4-2.4
		c-0.6,0.5-0.1,1.3-0.6,1.9c-1.7-0.9-3.3-2.1-5.4-2.2c-0.5,0.5,0.1,1.1-0.1,1.8c-1.7,0.1-3.5-0.4-5.2,0.1c-1.7,0.4-3.2,1.3-4.4,2.6
		c0.8,0.2,1.6,0.1,2.3-0.1c8.1-1.5,14.9,0.7,20.5,6.7c3.8,4.2,4.6,10.2,2.2,15.3c-0.9-1.8-1-3.9-1.9-5.6c-1,0-1.3,1.1-2.2,1.3
		c-1.1-2.7-0.2-6.1-2.4-8.5c-0.7,0.6-0.4,1.2-0.6,1.8c-0.1,0.3-0.1,0.5-0.4,0.6c-0.3,0-0.5-0.1-0.7-0.3c-0.3-0.5-0.5-1-0.7-1.4
		c-0.6-1.1-1.6-2-2.8-2.4c-0.4,0.6,0,1.4-0.3,2.2c-1.7-0.8-3-2.3-5-2.5c-0.2,1,0.8,1.8,0.3,2.9c-4.2-1.2-8.4-1.7-12.5,1.3
		c1.7,0.3,3.1,0.6,4.5,0.9c4.8,0.9,9.2,3.4,12.5,7c3.8,4,6.3,9,7.3,14.3c0.4,2.7,0.1,5.5-0.7,8.1c-0.1,0.2-0.3,0.4-0.5,0.4
		c-0.2-2.8-0.4-5.5-1.7-8.2c-1,0.6-0.9,1.8-1.8,2.5c-0.8-3-0.9-6.2-3.5-8.4l-1.3,3.2c-1.7-3.6-3-7.2-6.4-9.2
		c-0.6,0.6-0.3,1.3-0.8,2.1c-2.9-3.2-5.5-6.5-10.1-7.2c0.3,0.8,1,1.1,1.5,1.6c1.8,1.4,3.4,3,4.9,4.8c2,2.5,3.2,5.5,3.5,8.6
		c0.2,2.8-0.9,4.8-3.2,5.7c-0.3,0.1-0.6,0.1-0.9,0.1c-0.1-0.9,0.4-1.5,0.6-2.2c0.3-1.2,0.2-1.4-1-1.5c-1-0.1-1.1-0.4-0.8-1.2
		c0.3-0.8,0.4-1.6,0.3-2.4c-0.8-0.5-1.3,0.3-2.1,0.1c-0.5-1.9,0.1-4.1-0.8-6c-0.9,0.2-0.7,1.3-1.4,1.8c-0.5-0.6-1-1.3-1.2-2
		c-0.6-1.2-1.4-2.4-2.3-3.4c-0.4-0.5-1.1-0.8-1.8-0.7c-0.5,0.1-1,0.3-0.6,0.9s0,0.9-0.4,1.2c-0.6,0.5-1.2,1-1.8,1.5
		c-0.2,0.2-0.5,0.6-0.2,0.8c1.1,0.8,0.3,1.1-0.3,1.5c-1,0.6-1.8,1.4-2.5,2.4c0.2,0.7,1.1,0.3,1.2,0.9c0,0.2-0.1,0.3-0.3,0.4
		c-1.1,0.7-2.1,1.5-3,2.5c-1,1.2-1,1.3,0.4,2.4c-1.4,1-3.1,1.8-3.9,3.4c0.4,0.7,1.2,0.6,1.9,0.9c-1.1,1.6-3.1,2.4-3.8,4.2
		c0.4,0.6,1.1,0.4,1.6,0.9c-1,1.3-2.5,2.1-3.3,3.5c0.7,0.7,1.6,0.4,2.4,0.7c-1.6,2-3.9,3.4-4.8,5.9c0.3,0.8,1.1,0.3,1.7,0.7
		c-1.1,1.4-2.6,2.5-3.3,4.3l2,0.7c-1.1,1.9-3,3-3.6,5.3c1.7,0.3,3.3,0.6,5,0.9c2.6,0.5,5.2,1.1,7.8,1.9c1.7,0.6,1.8,0.6,1.9,2.4
		c0.1,1.6,0.1,3.1,0.1,4.7l1,38.5c0,0.6,0,1.2,0.1,1.8c0.5,2.2-0.3,4.5-2,6c-0.9,1-1.8,2.1-2.6,3.2c-1.3,1.5-1.3,1.5-3,0.5
		c-3.3-2-6.7-3.6-10.3-5c-1.3-0.6-2.7-0.9-4.2-0.9c-2.1,0-3.3,1.1-3.5,3.3c0.6,0.4,1.2-0.3,2.1,0c-0.2,1.3-1.2,2.2-1.4,3.5
		c0.7,0.6,1.5-0.1,2.4,0.2c-0.2,1.2-1,2.2-1.5,3.3c-0.6,1-0.9,2.1-0.8,3.3c0.8,0.3,1.5-0.3,2.4-0.2c-0.3,1.1-0.7,2.3-1.1,3.4
		c-0.5,1-0.6,2.1-0.5,3.2c0.9,0.3,1.5-0.6,2.4-0.4c0,1.7-1.1,3.2-1.1,5c0.9,0.5,1.8-0.1,2.6-0.4c4.4-1.6,8.6-3.7,12.4-6.3
		c11.4-7.8,20.4-18.6,26-31.2c4.4-9.7,6.3-20.4,5.7-31c-0.6-10-3.4-19.8-8-28.8c-2-4.1-4.3-8-6.9-11.7c-0.5-0.7-0.9-1.4-1.4-2.2h0.7
		c11.4,10.5,19.7,23.9,23.8,38.9c2.7,10.2,3.7,20.7,2.9,31.2c-1,15.7-6.5,30.7-15.9,43.3c-8.4,11.5-19.5,19.5-32.6,24.7
		c-8,3.2-16.5,5.4-25.1,6.4c-3.1,0.3-6.3,0.3-9.4,0.1c-7.4-0.3-14.7-1.5-21.9-3.4c-12.6-3.4-24.2-10-33.7-19.1
		c-11.5-11-18.9-24.5-24.1-39.4c-1.6-4.9-2.6-9.9-3.1-15c-0.5-4.8-0.7-9.7-0.4-14.5c0.5-17.2,6.9-33.7,18.1-46.7
		c3.1-3.6,6.4-6.9,10-10c0.3,0,0.5-0.2,0.6-0.5l0,0L73.4,73.7z M173.6,163.4c0.4-0.7,0.5-1.5,0.3-2.3c-0.2-12.7-0.5-25.4-0.7-38.2
		c0-2.2-0.1-4.5-0.2-6.7c-0.1-1.7-0.1-1.7-1.7-2.2c-5.8-1.8-11.8-2.8-17.8-2.9c-7.3,0-14.7,1.1-21.7,3.2c-1.1,0.4-2.3,0.3-3.4-0.1
		c-7.4-2.9-15.1-4.8-23-5.6c-6.9-0.6-13.9-0.2-20.7,1.1c-1.1,0.2-1.5,0.7-1.5,1.8c-0.4,8.2-1,16.4-1.4,24.5c-0.4,7-0.7,14-1.1,21
		c0,0.5,0,1,0,1.6s0.3,0.9,0.9,0.6l2.6-0.8c8.1-2.8,16.8-3.4,25.2-1.7c6.1,1.3,11.9,3.8,17,7.4c1,0.9,2.5,0.9,3.6,0.2
		c10.9-6.2,22.5-7.4,34.6-4.1C167.6,161,170.6,162.1,173.6,163.4z M137.8,181.5c0.4-0.6,1.3-0.1,1.5-0.8c-0.3-1.9-1.4-3.6-1.6-5.7
		c0.3-0.1,0.5-0.2,0.7-0.2c1.3-0.4,1.3-0.4,0.9-1.5c-0.4-1-0.7-2-1.2-2.9c-0.3-0.6-0.2-1,0.4-1.3c0.4-0.2,0.9-0.4,0.8-1
		c-0.3-1.2-0.2-2.4-0.9-3.6c-2.9,1.2-5.6,2.7-8.2,4.4c-0.9,0.6-1.7,1.5-2.7,1.5s-1.6-1.3-2.4-1.9c-0.3-0.3-0.6-0.6-0.9-0.8
		c-1.5-1.2-3.1-2.2-4.8-3c-0.4-0.2-0.9-0.4-1.2,0.1c-0.6,1-1,2.2-1.2,3.3c-0.1,0.3,0.1,0.5,0.3,0.6c0,0,0,0,0,0
		c0.9,0.2,0.6,0.8,0.5,1.4c-0.2,0.9-0.3,1.8-0.5,2.7c-0.1,0.4-0.2,0.9,0.1,1.1c1,0.5,0.7,1.3,0.5,2c-0.3,1.5-0.7,2.9-1,4.4
		c-0.1,0.5-0.4,1.2,0.2,1.4c0.9,0.3,0.6,0.8,0.5,1.4s-0.5,1.2-0.7,1.8s-0.3,1.1,0.5,1.2s0.6,0.6,0.4,1.1c-0.5,1-0.9,2-1.5,3
		c-0.4,0.8-0.3,1.2,0.6,1.4c0.4,0.1,0.8,0.2,1.2,0.2c5.7,0.9,11.5,1.2,17.2,0.9c0.9,0,1.8-0.2,2.7-0.3c1.3-0.2,1.3-0.3,0.9-1.5
		c-0.5-1.1-0.9-2.2-1.2-3.4c0.8-0.5,1.8,0,2.6-0.7C140,185,138.4,183.5,137.8,181.5z M102.6,105.6c-0.1-0.6-0.2-1.2-0.3-1.7
		c-0.9-3.9-2-7.7-3.3-11.5C95,80.2,89.3,68.7,82.2,58c-0.4-0.6-0.7-1.1-1.1-1.6c-0.2-0.3-0.5-0.4-0.8-0.2c0,0,0,0,0,0
		c-1.2,0.3-1.8,1.5-1.5,2.7c0.1,0.3,0.2,0.5,0.4,0.8c0.2,0.3,0.4,0.7,0.6,1c3.7,5.7,6.9,11.6,9.8,17.7c3.9,8.6,7,17.5,9.4,26.7
		c0.5,1.9,0.9,2.1,2.7,1.8C102.3,106.6,102.7,106.4,102.6,105.6z M156.2,109.4c1,0.2,1.5-0.3,1.8-1.4c1-3.9,2.2-7.8,3.7-11.6
		c4.4-11.2,10.1-21.8,16.9-31.6c0.4-0.5,0.7-1.1,1.1-1.6c0.2-0.3,0.4-0.6,0-0.9c-0.8-0.5-1.7-0.9-2.7-1.1c-0.8-0.1-1,0.7-1.4,1.2
		c-7.4,11.8-13.5,24.3-18.3,37.3c-1,2.8-1.9,5.6-2.6,8.4c-0.3,1.1-0.2,1.2,1,1.2H156.2z M149.4,164c-1.6-0.2-3,0.3-4.4,0.3
		s-1.8,0.6-2.1,1.8c-1.5,5.2-1.9,10.6-1.4,16c0.2,2.9,0.6,5.9,1.4,8.7c0.3,1.3,0.4,1.3,1.6,0.9s2.2-0.8,3.4-1.1
		c0.7-0.1,1.2-0.8,1.1-1.5c0,0,0,0,0,0c-0.2-2.2-0.4-4.4-0.6-6.7c-0.4-4-0.3-8,0.1-12C148.7,168.2,149,166.2,149.4,164z
		 M114.5,172.9c0-1.8-0.1-3.7-0.3-5.5c-0.9-5.1,0-4.4-5.2-4.8h-0.4c-1.3,0-1.3,0-1.1,1.3c0.4,3.5,0.8,7,0.9,10.6
		c0,4.3-0.2,8.6-0.8,12.9c-0.3,2.2-0.6,2.2,2,2.8c0.2,0.1,0.4,0.1,0.6,0.1c1.3,0.3,1.5,0.2,1.8-1
		C113.3,183.9,114.6,178.5,114.5,172.9L114.5,172.9z"/>
	<path class="st5" d="M109.2,74.2c0.2-0.9,0.4-1.6,0.7-2.3l6.6-21.8c0.7-2.2,0.7-2.2-1.1-3.6L98.6,33.7c-0.7-0.4-1.3-1-1.6-1.8
		c0.7-0.2,1.4-0.3,2.2-0.2h21.4c2.2,0,2.2,0,2.9-2c2.3-6.8,4.6-13.7,6.9-20.5c0.1-0.8,0.5-1.6,1.1-2.2c1.1,3.1,2.2,6.1,3.3,9.1
		c1.6,4.4,3.1,8.8,4.7,13.1c0.6,1.6,0.6,1.6,2.4,1.6l23,0.8c0.3,0,0.6,0,1.1,0.1c-0.3,1-1.1,1.4-1.7,1.8c-4.7,3.6-9.3,7.2-14,10.8
		c-0.7,0.6-1.5,1.2-2.3,1.8c-1.4,0.8-1.7,2-1.2,3.5c0.7,2.4,1.4,4.8,2,7.2c1.5,5.2,2.9,10.5,4.4,15.7c0.2,0.5,0.3,1,0.2,1.5
		c-0.6-0.2-1.2-0.6-1.7-1l-19.1-13.5c-1.8-1.2-1.8-1.2-3.5,0.1c-5.8,4.3-11.7,8.7-17.5,13C110.8,73.3,110,73.9,109.2,74.2z
		 M143.2,52.3c0.5-1,0.7-2.2,0.4-3.3c-0.4-1.7-0.7-3.5-1.1-5.2c-0.2-0.6-0.1-1,0.5-1.3c1.1-0.7,2.3-1.2,3.6-1.5
		c0.5-0.1,1.1-0.4,1.4,0.2s-0.3,0.9-0.7,1.3s-1,0.8-1.5,1.3c-0.2,0.3-0.2,0.7,0.1,0.9c0,0,0,0,0,0c0.2,0.2,0.5,0.1,0.7-0.1
		c1.3-1.1,2.3-2.5,3.1-4c0.5-1.1,0-1.8-1.2-1.8c-1.4,0.1-2.7,0.4-4,1c-0.8,0.3-1.6,0.9-2.6,0.7c0.4-2.6,0-3.6-2.2-5.9
		c-0.6,0.8-0.8,1.8-0.5,2.8c0.2,0.7,0.5,1.4,0.7,2.1c0.4,1.5,0.3,1.7-1.1,2.1c-1.6,0.3-3.2,0.8-4.7,1.5c-1.2,0.5-1.8,1.8-1.4,3
		c0.1,0.2,0.2,0.5,0.4,0.6c0.3,0.4,0.6,0.8,1,1.2c0.8,0.9,1.5,1.8,2.1,2.9c0.5,1.1,0.4,1.3-0.8,1.5c-2.4,0.4-4.6-1.2-5.1-3.5
		c0-0.2,0-0.3-0.1-0.5c0-0.5,0.1-1.1-0.7-1.2c-0.6-0.1-0.8,0.2-1,0.7c-0.5,1.4-0.6,1.4-2,1c-0.6-0.2-1.1-0.3-1.6,0.2
		c-0.5,0.5-0.6,1.3-0.2,1.8c1,1.7,0.4,2.8-1,3.9s-2.9,2.1-4.3,3.3c-0.3,0.2-0.5,0.5-0.4,0.8c0.2,0.5,0.6,0.4,1,0.3
		c1.9-0.5,3.7-1.4,5.2-2.7c1.2-0.9,1.3-2.2,1.5-3.5c0.1-0.7,0.4-1.1,1.1-1.2c0.6-0.2,1.3,0,1.7,0.6c1.5,2.4,4.5,3.4,7.2,2.5
		c0.9-0.2,1.5-1,1.4-1.9c0.3-1.8-0.2-3.6-1.3-5c-0.5-0.6-1-1.3-1.3-2c-0.6-1-0.4-1.3,0.6-1.8c1.1-0.5,2.3-0.8,3.6-1.1
		c0.8-0.2,1.2,0.1,1.3,1c0.2,1.4,0.5,2.7,0.8,4C142.1,49.6,142.5,51,143.2,52.3L143.2,52.3z M132.6,34.8c-0.2,0.7-0.4,1.2-0.6,1.7
		c-0.2,0.5-0.5,1.1-0.9,1.5c-0.3,0.5-0.8,0.7-1.3,0.7c-0.6-0.1-0.7-0.7-0.8-1.2c-0.1-0.7-0.1-1.3-0.1-2c0-0.8-0.1-1.6-0.3-2.3
		c-0.1-0.4-0.3-0.9-0.7-1.1s-0.8,0.3-1.1,0.7c-0.6,0.9-1.2,1.9-1.9,2.8c-0.9,1.2-1.2,1.2-2.6,0.6c0,0.8-0.4,2,0.4,2.4
		s1.6-0.5,2.3-1.1c0.4-0.4,0.8-0.9,1.1-1.4c0.3-0.4,0.6-0.9,1.3-0.9c0.2,0.6,0.3,1.2,0.3,1.8c0,1,0.3,1.9,0.7,2.8
		c0.7,1.5,1.8,1.8,3.2,0.7c0.2-0.2,0.4-0.4,0.6-0.5c1.1-1.1,1.1-1.1,2.3-0.3c1.2,0.9,2.9,0.6,3.8-0.7c0.3-0.4,0.4-0.8,0.5-1.3
		c0.2-0.7,0.1-1.5-0.1-2.2c-0.5-1.4-1-2.8-1.6-4.2c-0.2-0.7-0.8-1.2-1.6-1.3c-0.3-0.1-0.7,0-0.9,0.3c-0.4,0.7,0,2.5,0.7,2.8
		c1.3,0.6,1.4,1.7,1.6,2.9c0.1,0.5,0.1,1.1-0.5,1.4c-0.5,0.2-1.1,0.1-1.4-0.4C134.1,36.4,133.4,35.7,132.6,34.8z M138.9,44
		c-0.6,1-0.7,2.2-0.2,3.2c0.4,1.3,0.7,2.6,0.9,4c0.2,1.8,0.4,3.6,0.6,5.4c0,0.6,0.2,1.2,0.6,1.7c0.4-0.5,0.6-1.1,0.6-1.7
		c0.1-1.7,0-3.4-0.2-5.1c-0.3-1.5-0.5-3-0.6-4.5C140.7,45.8,140,44.6,138.9,44z M120.7,48.7c1.8,0.4,2.8-0.2,2.7-1.8
		c-0.1-1.3,0.5-1.9,1.5-2.3c0.8-0.4,1.5-0.8,2.2-1.2c0.3-0.2,0.6-0.5,0.8-0.8c0.2-0.3,0.2-0.6,0-0.9c-0.2-0.3-0.6-0.2-0.9-0.1
		c-0.1,0.1-0.2,0.1-0.3,0.2c-1.2,0.9-2.6,1.7-4.1,2.3c-1.4,0.7-1.6,1.4-0.8,2.8c0.2,0.3,0.1,0.6-0.1,0.8
		C121.5,48.2,120.8,48.1,120.7,48.7L120.7,48.7z M129.3,27.4c-0.5,0.8-0.6,1.8-0.4,2.7c0.2,1,0.6,1.3,1.6,0.8
		c0.3-0.2,0.7-0.2,1.1-0.1c1.2,0.3,1.5,0.1,1.8-1c0.3-1,0-2.1-0.9-2.8c-0.2,0.8-0.1,1.7-0.5,1.9s-1.3-0.1-1.9,0.6
		c-0.1-0.5-0.1-0.8-0.2-1.2C129.9,28,129.7,27.6,129.3,27.4L129.3,27.4z M128.8,58.7c0.9,0,1.6-0.8,1.6-1.6
		c-0.1-0.9-0.9-1.6-1.7-1.5c-0.8,0.1-1.4,0.7-1.5,1.5C127.2,58,128,58.7,128.8,58.7L128.8,58.7z M127.5,29.7c0-0.1,0-0.3,0-0.4
		c-0.2-0.5,0-1.4-0.8-1.4s-1,0.7-1.2,1.3c0,0.1,0,0.3,0,0.4c0,0.8,0.1,1.6,0.9,2C126.9,31.9,127.5,30.8,127.5,29.7L127.5,29.7z
		 M131.1,27.1c0.6-1.2,0.7-2.4,0.1-2.8c-0.2-0.1-0.4-0.1-0.5,0c-0.5,0.4-0.4,1.9,0.2,2.8C130.9,27.1,131,27.1,131.1,27.1L131.1,27.1
		z"/>
	<path class="st5" d="M136,248.7c1-3,2.4-5.8,3.6-8.6c1.6-3.7,3.2-7.3,4.8-11c0.3-1.1,1.3-1.8,2.5-1.8c1.1,0,2.2-0.2,3.3-0.4
		c0.8-0.3,1.7,0.2,2,1c0,0.1,0,0.1,0.1,0.2c0.8,2.4,1.7,4.7,2.6,7c0.6,1.6,1.1,3.2,1.8,4.8c0.5,1.2,0.7,1.4,1.9,1
		c2.8-0.9,5.6-1.9,8.4-2.8c0.9-0.3,0.9-0.8,0.7-1.5c-0.6-2.1-1.2-4.1-1.9-6.2c-0.5-1.7-0.5-1.7,1.2-2.4l0.2-0.1
		c2.4-0.9,2-0.8,2.7,1.2c0.7,2.2,1.5,4.3,2.5,6.3c0.6,0,1.2-0.3,1.7-0.6c2.8-1.4,5.5-2.7,8.3-4.1c1.1-0.6,1.2-0.6,0.5-1.8
		c-1-1.7-2-3.4-3-5c-1.2-2-2.4-4-3.7-6c-0.5-0.5-0.4-1.3,0-1.7c0.1-0.1,0.1-0.1,0.2-0.1c3.1-2.7,2.4-2.6,4.3,0.5s3.8,6.3,5.8,9.4
		c0.8,1.3,0.9,1.3,2.1,0.5c1.6-1.1,3-2.3,4.6-3.4c0.8-0.5,0.9-1,0.4-1.8c-1.1-1.7-2.3-3.4-3.4-5c-0.8-1.3-0.8-1.4,0.1-2.4
		c4-4.1,7.9-8.2,11.9-12.3c1.2-1.2,1.3-1.2,2.5-0.1c2.5,2.2,4.9,4.5,7.4,6.8c0.7,0.7,0.8,1.2,0.2,2c-0.3,0.3-0.5,0.6-0.7,0.9
		c-3.5,4.1-7.1,8-11,11.8c-10.6,9.6-23.3,16.7-37,20.9c-8.2,2.5-16.7,4.2-25.2,5C137.5,249,136.7,248.9,136,248.7z M197.1,219.3
		c3.3-2.9,6.1-6.2,9.2-9.2c0.6-0.5,0.4-1-0.1-1.5c-0.6-0.5-1.2-1-1.7-1.6c-0.7-0.8-1.3-0.7-1.9,0c-1.8,1.7-3.6,3.3-5.3,5
		c-1,1-2.9,1.7-2.8,3.2S195.8,218,197.1,219.3L197.1,219.3z M142.9,242.9l0.2,0.5c2.7-0.4,5.4-0.8,8.1-1.3c0.9-0.1,0.7-0.8,0.5-1.4
		c-0.5-1.7-1.1-3.4-1.7-5c-0.4-1.3-0.9-2.6-1.6-3.8L142.9,242.9z"/>
	<path class="st5" d="M216.1,203.8c-0.9-2.1-1.8-4.2-2.5-6.3c-1.8-4.6-3.5-9.3-5.3-14c-0.6-1.2-0.4-2.6,0.3-3.7
		c0.4-0.6,0.7-1.2,1-1.9c0.4-1,1-1,1.9-0.7c3.1,1.3,6.2,2.5,9.3,3.8c2.8,1.1,2.8,1.1,3.7-1.6c0.3-0.8,0.6-1.6,0.8-2.4
		c0.6-1.9,1-1.9-1.4-2.7c-1.6-0.5-3.1-0.9-4.7-1.5c-1.4-0.5-1.4-0.5-1.1-1.9c0.9-4.2,1.8-8.3,2.8-12.5c0.2-0.9,0.4-1.8,0.6-2.7
		c0.1-0.3,0.1-0.6,0.3-0.7c1.2-0.6,2.3,0.3,3.4,0.5c0.9,0.2,0.6,0.9,0.5,1.4c-0.6,2.9-1.2,5.8-1.7,8.7c-0.2,0.8-0.3,1.7-0.5,2.5
		c-0.2,0.6,0.1,1.3,0.7,1.5c0.1,0,0.2,0.1,0.3,0.1h0.2c2.9,0.9,2.9,0.9,3.8-2c1.1-4.4,2-8.8,2.5-13.3c0.2-1.4,0.4-2.9,0.5-4.3
		s0.1-1.4-1.2-1.7c-1.9-0.4-3.9-0.8-5.8-1c-0.8,0-1.5-0.6-1.6-1.5c0-0.1,0-0.2,0-0.3c0-0.4-0.1-0.8-0.1-1.2
		c-0.1-4.3-0.1-8.5-0.4-12.8c-0.1-2.1-0.1-2.1,2-2.1c2.8-0.1,5.6-0.2,8.4-0.2c1.7,0,1.8,0.1,2,1.7c1,7.2,1.2,14.5,0.5,21.8
		c-1.1,11-3.9,21.7-8.4,31.8c-2.6,5.9-5.6,11.5-9,17C217.4,202.4,216.8,203.1,216.1,203.8z M231.6,138.9L231.6,138.9v-1.6
		c0-4.3,0-4.3-4.3-4.2c-0.9,0-1.3,0.3-1.2,1.3c0.1,2.1,0.2,4.3,0.3,6.5c0.1,3.1,0.1,3.1,3.3,3.2c0.3,0,0.6,0,1,0
		c0.8,0.1,1-0.3,1-1.1C231.6,141.7,231.6,140.3,231.6,138.9z M217.1,195.1c1.6-2.6,2.8-5,3.9-7.4c0.3-0.7-0.2-0.9-0.7-1.1
		c-2-0.9-3.9-1.8-5.9-2.7c-0.7-0.4-1.5-0.6-2.3-0.7C213.8,187.2,215.3,191,217.1,195.1z"/>
	<path class="st5" d="M28.4,135.3c-3-0.6-6-0.4-9-0.8c-1.5-0.2-1.5-0.2-1.5-1.6c0.2-5.8,0.8-11.5,2-17.2c0.4-1.9,0.4-1.9,2.3-1.7
		c1.4,0.1,2.7,0.2,4.1,0.3c0.8,0.2,1.5-0.2,1.7-1c0-0.1,0-0.2,0.1-0.3c0.3-1.4,0.7-2.8,1-4.2c0.2-0.7,0-1.1-0.8-1.2
		c-2.5-0.3-2.6-1.2-3.1,2c-0.4,2.5-0.4,2.5-2.8,1.7c-3-0.9-6-1.9-9-2.9c-1.6-0.5-1.6-0.6-1.2-2.2c1.8-7.8,4.6-15.3,8.3-22.4
		c0.9-1.7,0.9-1.7,2.6-0.9c3,1.3,6,2.7,9,4c0.9,0.4,1,0.8,0.7,1.7c-1,2.8-1,2.8-3.6,1.7c-1.6-0.7-3.1-1.4-4.7-2.1
		c-0.9-0.4-1.5-0.3-1.9,0.6c-2.5,4.8-4.5,9.9-6,15.1c-0.3,0.9,0,1.3,0.8,1.6s1.7,0.7,2.6,1c1.2,0.4,1.3,0.4,1.7-0.8
		c0.3-0.9,0.5-1.8,0.8-2.6c0.5-1.4,0.5-1.5,2-1c4.8,1.3,9.6,2.7,14.4,4.1c0.8,0.2,1.6,0.5,2.5,0.7s1.1,0.6,0.9,1.4
		c-1.2,3.7-0.7,3.3-4,2.2c-1.3-0.4-2.5-0.9-3.7-1.3c-0.8-0.3-1.4,0-1.5,1c-0.2,1.4-0.5,2.7-0.6,4.1c-0.1,1.1,0.3,1.5,1.4,1.6
		c1.4,0.2,2.8,0.6,4.2,0.9c0.9,0.2,1.3,0.6,1.2,1.6c-0.2,3.7-0.7,7.4-1,11.1c-0.2,1.6-0.4,3.1-0.5,4.7c-0.1,0.9-0.5,1.1-1.2,1.1
		C33.8,135.3,31.1,135.3,28.4,135.3z M22.6,127.2c0,0.9,0,1.7,0,2.4c0,0.3,0,0.7,0.4,0.9c0.7,0.3,1.5,0.3,2.3,0.1
		c0.6-0.2,0.5-0.9,0.5-1.4c0.1-2.8,0.5-5.6,1-8.4c0.5-2.1,0.4-2.1-1.8-2.5c-0.1,0-0.1,0-0.2,0c-1-0.3-1.4,0.1-1.5,1.1
		C23,122.1,22.8,124.7,22.6,127.2L22.6,127.2z M30.4,127v3.1c0,0.5,0.3,0.9,0.8,0.9c0,0,0,0,0,0c1.6,0.3,2.2,0,2.3-1.6
		c0.2-3.1,0.6-6.3,1.2-9.3c0.2-0.6-0.1-1-0.8-1.1c-0.3,0-0.6-0.1-1-0.1c-1.7-0.3-1.8-0.2-2,1.4C30.8,122.5,30.4,124.7,30.4,127
		L30.4,127z"/>
	<path class="st5" d="M20,159.8c0.9,0,1.7,0.2,2.6,0.5c5.9,1.7,11.8,3.5,17.7,5.1c1.4,0.3,2.4,1.4,2.7,2.7c1.1,4,1.1,3-1.9,4.8
		S35,176.3,32,178c-1.3,0.8-1.4,0.8-0.7,2.3c1.2,2.6,2.5,5.2,3.7,7.8c0.4,0.9,0.9,1.1,1.8,0.6c1.9-1,3.9-1.9,5.8-2.8
		c1.3-0.6,1.4-0.6,2.1,0.8c0.1,0.1,0.1,0.2,0.2,0.4c0.9,1.9,0.9,1.9-1,2.9c-2.1,0.9-4,2-5.9,3.3c2.1,3.2,4.3,6.2,6.5,9.2
		c0.5,0.7,1,0.5,1.7,0.1c1.9-1.2,3.9-2.5,5.8-3.7c1.4-0.9,1.5-0.9,2.6,0.4c3.1,3.6,6.2,7.2,9.2,10.8c1.1,1.3,1.1,1.3,0,2.6
		c-2,2.3-4,4.6-6.1,6.9c-1.2,1.3-1.2,1.3-2.5,0.1c-5.4-4.9-10.4-10.2-14.9-15.9c-9.9-12.6-16.3-27-20.2-42.4
		C19.9,160.8,19.9,160.3,20,159.8z M56.3,214.8c0.6-0.9,1.4-1.8,2-2.8c0.9-1.3,0.9-1.4-0.2-2.5c-1.5-1.6-3.1-3.2-4.7-4.7
		c-1.7-1.7-1.7-1.7-3.5-0.2c-1.6,1.3-1.6,1.6-0.3,3.2c1.8,2.1,3.6,4.1,5.4,6.2C55.4,214.4,55.8,214.7,56.3,214.8L56.3,214.8z
		 M26.6,166.6c0.6,2.8,1.5,5.5,2.4,8.2c3.1-1.2,9.3-4.6,10-5.6C35,168,30.8,167.1,26.6,166.6z"/>
	<path class="st5" d="M67.9,224c-0.1-6.6-1-13.1-1.1-19.8c1.4,0.8,2.7,1.8,3.8,2.9c0.5,0.4,0.4,1.1,0.4,1.7c0.5,5.1,1,10.2,1.5,15.3
		c-0.1,0.8,0.2,1.6,0.6,2.3c0.7-0.6,1.3-1.3,1.7-2.1c1.9-2.6,3.7-5.3,5.5-7.9c1-1.4,1-1.4,2.5-0.6l0.9,0.5c0.7,0.4,0.8,0.8,0.4,1.4
		c-0.8,1.3-1.5,2.6-2.2,3.9c-1.4,2.5-2.9,5-4.3,7.5c-0.7,1.2-0.6,1.3,0.6,1.9c3.4,1.8,6.9,3.5,10.3,5.2c1.2,0.6,1.3,0.6,1.9-0.6
		c1-1.9,2-3.7,2.8-5.6c0.2-0.8,0.9-1.2,1.7-1.1c0.2,0,0.3,0.1,0.4,0.2c0.9,0.2,1.7,0.5,2.5,0.9c-0.4,1.5-1,3-1.7,4.5
		c-0.4,1.1-1.6,2.3-1.1,3.4s2,1,3.1,1.5c1.3,0.5,2.6,1,3.8,1.5c1.8,0.7,1.8,0.7,2.3-1.2s1-3.8,1.4-5.7c0-0.7,0.6-1.2,1.3-1.2
		c0.1,0,0.1,0,0.2,0c1.1,0,2.2,0.1,3.2,0.3c-0.4,2.1-0.8,4.2-1.2,6.2c-0.1,0.3-0.1,0.5-0.2,0.8c-0.3,1.8-0.2,1.9,1.5,2.2
		c2.1,0.4,4.1,0.7,6.2,1.1c0.9,0.2,1.2-0.1,1.3-0.9c0.2-2,0.6-4,0.7-6c0.1-1.1,0.6-1.4,1.6-1.4c2.9-0.2,3,0,2.6,2.8
		c-0.4,2.8-0.8,5.7-1.2,8.6c-0.3,1.8-0.3,1.8-2.2,1.7c-4-0.2-8-0.7-11.9-1.5c-16.5-3.2-31.2-10.4-44.8-20.2
		c-2.1-1.5-2.1-1.1-0.3-3.3c0.9-1.1,1.1-1,2.4-0.4c0.7,0.4,1.4,0.7,2.1,1.1C67.5,224,67.7,224,67.9,224z"/>
	<path class="st5" d="M232.8,120.9c0,0.3,0,0.6,0,0.9c0.1,0.9-0.3,1.3-1.2,1.4c-4.8,0.9-9.5,1.9-14.3,2.8c-1.7,0.3-1.8,0.2-2.1-1.6
		c0-0.1-0.1-0.3-0.1-0.4c-0.2-1.7-0.2-1.7,1.4-2.1c3.2-0.7,6.4-1.4,9.6-2.1s2.9-0.2,2.1-3.4c-1.4-5.5-3.2-10.9-5.4-16.2
		c-0.6-1.5-0.7-1.5-2.1-0.9c-3.4,1.4-3,0.8-1.9,4.1s2.4,6.3,3.5,9.4c0.5,1.4,0.4,1.5-1,1.9c-0.4,0.1-0.9,0.2-1.3,0.3
		c-0.5,0.2-1,0-1.2-0.5c0,0,0-0.1,0-0.1c-0.2-0.4-0.4-0.8-0.5-1.3c-1.6-4.4-3.3-8.8-4.9-13.3c-0.1-0.4-0.2-0.7-0.3-1.1
		c-0.1-0.4,0.1-0.8,0.4-1c0,0,0.1,0,0.1,0c3.3-0.9,6.7-1.9,10-2.8c0.7-0.2,0.9,0.2,1.2,0.7c1,1.8,1.9,3.7,2.8,5.7
		c2.4,5.5,4.1,11.4,5,17.3C232.7,119.2,232.7,120,232.8,120.9z"/>
	<path class="st5" d="M31.8,147.3c0,1.8,0,3.7,0,5.5c0.2,0.8-0.4,1.6-1.2,1.7c-0.1,0-0.1,0-0.2,0c-3.1,0.8-6.3,1.4-9.4,1.8
		c-1.5,0.2-1.6,0.1-1.8-1.5c-0.5-4-0.9-7.9-1.4-11.9c-0.1-0.9-0.3-1.8-0.3-2.7c-0.1-1.4,0-1.5,1.3-1.4c3.2,0.2,3.2,0.2,3.5,3.4
		c0.2,2.5,0.3,5,0.5,7.4c0.1,1.4,0.3,1.6,1.7,1.5c4-0.4,3.3,0,3.1-3.4c-0.1-2.1-0.4-4.2-0.6-6.2c-0.1-0.9,0.1-1.3,1.1-1.3
		c3.4-0.2,3.4-0.2,3.5,3.2c0,1.3,0,2.6,0,3.9L31.8,147.3z"/>
	<path class="st1" d="M131.7,238.4c-0.1,2.9-0.3,5.8-0.4,8.6c0,1-0.4,1.4-1.4,1.4c-2.7,0.1-2.7,0.1-2.6-2.6
		c0.1-4.9,0.3-9.8,0.4-14.7c0-0.5,0.1-1,0.1-1.6c0-0.5,0.4-0.9,0.9-0.9c0,0,0,0,0,0c0.3,0,0.6-0.1,1-0.1c2.1-0.2,2.3-0.1,2.2,2
		C131.9,233.2,131.7,235.8,131.7,238.4L131.7,238.4z"/>
	<path class="st1" d="M172.3,245.8c0.1,0,0.3,0,0.4,0.1c0.8,1.1,1.5,2.2,2,3.5c-0.1,0.3-0.4,0.5-0.7,0.6c-1.5,0.6-3,1.1-4.6,1.7
		c-0.5,0.2-0.9,0.1-1.1-0.4c-0.1-0.2-0.2-0.4-0.3-0.5c-1.6-2.9-1.6-2.9,1.4-4L172.3,245.8z"/>
	<path class="st1" d="M20.8,188.8c-0.4,0.1-0.7-0.2-0.9-0.5c-0.8-1.6-1.6-3.2-2.4-4.8c-0.1-0.1-0.1-0.2-0.1-0.4
		c0.2-1.1,1.3-1.1,2.1-1.5c0.5-0.3,1.2-0.7,1.7,0.2c0.8,1.6,1.6,3.2,2.4,4.8c0.1,0.3,0.3,0.7-0.1,0.9
		C22.7,188,21.8,188.5,20.8,188.8z"/>
	<path class="st1" d="M24.2,188.9c0.4,0,0.7,0.2,0.9,0.6c1,1.6,1.9,3.1,2.9,4.7c0.2,0.3,0.3,0.7,0,0.9c-0.8,0.7-1.7,1.2-2.7,1.4
		c-0.2,0-0.5-0.2-0.6-0.4c-1-1.6-2-3.2-2.9-4.8c-0.3-0.6-0.3-1,0.3-1.3L24.2,188.9z"/>
	<path class="st1" d="M234.6,103.8c1.6,0,1.6,0,2.1,1.4s0.8,2.6,1.2,3.9c0.2,0.7,0,1-0.6,1.1c-0.5,0.1-1,0.2-1.6,0.2
		c-1.5,0.1-1.5,0.1-2-1.4c-0.4-1.2-0.8-2.3-1.1-3.5s-0.3-1.4,1-1.6C234,103.7,234.3,103.7,234.6,103.8z"/>
	<path class="st7" d="M73.4,73.7L73,73.3c0.4-0.6,1-1.1,1.7-1.4C74.5,72.6,74,73.2,73.4,73.7z"/>
	<path class="st7" d="M183.7,77.3H183c-0.4-0.3-0.7-0.7-0.8-1.2C182.8,76.3,183.4,76.8,183.7,77.3z"/>
	<path class="st7" d="M73,73.3c-0.1,0.3-0.3,0.5-0.6,0.5C72.5,73.5,72.7,73.3,73,73.3z"/>
	<path class="st1" d="M113.6,148c-0.2-0.8-0.8-0.7-1.2-0.9c-0.6-0.2-1.4-0.1-1.4-1c-0.1-0.9,0.5-1.7,1.3-2c0.7-0.2,1.5-0.4,2.3-0.6
		c1.2-0.2,2.5-0.1,3.7,0.3c1.2,0.3,1.4,0.9,1.1,2.1c-0.3,0.9-1,1.5-1.1,2.5c3.2,0.8,4,0.2,3.5-2.9c0-0.5-0.1-0.9-0.3-1.3
		c-0.8-1.5-0.3-2.6,1.1-3.8c0.6,2.6,1.6,4.9,0.9,7.5c-0.7,3-3.3,4.5-6.2,3.3c-1.2-0.5-2.5-0.6-3.8-0.3c-2.1,0.6-4.2,0.9-6.4,0.8
		c-2.3-0.2-4.7-0.4-5.7-3.1l-2.3,1.3c-1.3,0.9-3,1-4.5,0.4c-0.8-0.5-1.8-0.4-2.5,0.3c-0.5,0.6-1.4,0.8-2,0.3c0,0,0,0-0.1-0.1
		c-0.8-0.6-1.3-0.3-1.8,0.3c-0.4,0.6-1.2,0.9-1.9,0.6c0-0.1-0.1-0.3-0.1-0.3c1.3-1.6,2.3-3.5,2.8-5.6c0.2-0.8,0.7-1.6,1.4-2.1
		c0.9-0.6,1.4-0.5,1.9,0.4c0.2,0.3,0.3,0.7,0.4,1.1c0.2,1.4,1.1,2,2.3,2.3c1.7,0.4,3.4,0.1,4.9-0.8c0.8-0.4,0.7-1,0.6-1.7
		c-0.2-1.5-0.3-3-0.6-4.5c-0.2-0.8,0-1.6,0.4-2.3c0.7,1.1,0.6,2.3,0.9,3.4c0.4,1.6,0.8,3.2,1.1,4.8c0.2,0.9,0.8,1.7,1.7,2
		c2,0.8,4.1,1,6.2,0.5C111.4,148.6,112.4,148.3,113.6,148z M90.7,146.1c-0.6,0-0.8,0.4-0.8,0.9c0,0.7,0.2,1.2,1,1.2
		c0.5,0.1,0.9-0.3,1-0.8c0-0.1,0-0.1,0-0.2C91.8,146.5,91.4,146.2,90.7,146.1L90.7,146.1z"/>
	<path class="st1" d="M135.1,133.4c1.4-0.9,2.6-1.5,3.4-2.7s0.7-2.6,1.1-3.9c0.1-0.3,0.2-0.5,0.3-0.7c0.8-1.8,1.6-1.9,2.9-0.5
		c0.4,0.4,0.8,0.9,1.1,1.4c1.3,2,3.1,2.4,5.3,1.9c0.3-0.1,0.5-0.1,0.8-0.2c2.6-1,3-1.4,2.5-4.1c-0.2-1.2-0.3-2.3-0.4-3.5
		c0-0.6,0.1-1,0.8-1.1s0.8,0.5,0.9,1c0.1,1.2,0.3,2.5,0.4,3.7c0,0.8,0.1,1.6,0.4,2.3c0.6,1.8,2.5,2.9,4.4,2.3c0.1,0,0.1,0,0.2-0.1
		c0.4-0.1,0.7-0.5,0.6-1c0,0,0,0,0,0c-0.1-0.5-0.2-1-0.3-1.6c-0.2-1.2,0.1-2.5,0.8-3.6c0.7-1.3,2.2-1.8,3.6-1.4
		c1.3,0.3,2.5,0.9,3.4,1.9c-0.7,0.8-1.9,0.9-2.8,0.4c-0.1-0.1-0.2-0.1-0.4-0.1c-1.7-0.6-2.4-0.5-2.8,0.6c-0.5,1.4,0.2,3,1.6,3.5
		c0.9,0.3,1.8,0.2,2.7-0.2c0.6-0.3,1.2-0.5,1.8-0.7c0.5-0.2,1.1,0,1.3,0.5c0,0.1,0.1,0.1,0.1,0.2c0.2,0.7,0.1,1.5-0.7,1.6
		c-2.7,0.4-4.9,2.2-7.6,2.6s-5.1,0.4-7-1.9c-0.7-0.8-1.3-0.9-2.1-0.1c-1.7,1.7-4.1,2.3-6.4,1.6c-0.6-0.2-1.2-0.2-1.7,0
		c-0.7,0.2-1.4,0.3-2.1,0.1c-0.8-0.2-1.7,0.1-2.2,0.8C137.9,133.6,136.4,134,135.1,133.4z M141.4,128.9c0.4,0,0.8-0.1,0.8-0.6
		s-0.2-1-0.9-1s-0.6,0.3-0.6,0.8S140.8,128.9,141.4,128.9z"/>
	<path class="st1" d="M102.2,116.5c2,2,3.3,8.1,2.2,10.5c-0.6,1.4-1.9,2.2-3.4,2.3c-1.7,0.1-3.4,0.1-5.1-0.2c-0.6-0.2-1.3,0-1.8,0.5
		c-0.6,0.8-1.8,1-2.7,0.4c-0.8-0.5-1.9-0.3-2.5,0.4c-0.9,0.9-2.3,1.3-3.5,1.1c0.1-0.7,0.7-0.9,1.1-1.3c1.8-1.6,3.5-3.4,3.9-5.9
		c0.1-0.5,0.3-1,0.7-1.4c0.6-0.7,1.6-0.8,2.3-0.2c0.1,0.1,0.2,0.2,0.3,0.3c0.4,0.6,0.8,1.2,1,1.9c0.2,1.1,1.3,1.8,2.3,1.6
		c1.6,0,3.3-0.1,4.9-0.4c0.6,0,1.1-0.5,1-1.1c0-0.1,0-0.2,0-0.3c-0.2-1.2-0.4-2.3-0.8-3.4c-0.4-1.3-0.6-2.6-0.4-3.9
		C101.8,117.1,101.7,116.7,102.2,116.5z M92.3,125.3c-0.5,0-0.7,0.2-0.8,0.7s0.1,1.2,0.9,1.2c0.5,0,0.6-0.4,0.6-0.8
		C93.1,125.8,93,125.4,92.3,125.3z"/>
	<path class="st1" d="M105.8,115.1c0.8,0.9,1.3,2.1,1.4,3.3c0.4,1.9,0.7,3.9,1.1,5.8c1,4.4,3.8,5.4,7.5,2.8c1.5-1.1,2.8-2.4,4.2-3.6
		c2.2-1.8,3-1.5,3.9,1.1c0.4,1.1,0.5,2.3,0.3,3.5c0,1-0.8,1.8-1.8,1.8c-0.3,0-0.5,0-0.7-0.2c-0.6-0.1-1.1-0.4-1.6-0.7
		c-0.8-0.7-2-0.7-2.9-0.1c-1.2,0.7-2.5,1.2-3.8,1.4c-2.8,0.7-5.7-1-6.4-3.8c0-0.1,0-0.1,0-0.2c-0.8-3.1-1.3-6.3-1.6-9.5
		C105.3,116.2,105.4,115.6,105.8,115.1z M121.6,125.4c-0.5,0.1-0.9,0.5-0.9,1.1c0,0.6,0.4,1,1,1c0.1,0,0.1,0,0.2,0
		c0.6-0.1,0.8-0.6,0.8-1.1C122.6,125.7,122.1,125.3,121.6,125.4C121.6,125.3,121.6,125.3,121.6,125.4z"/>
	<path class="st1" d="M141.7,147c-0.4-1.9-0.7-3.8-1.1-5.8c-0.2-0.7,0-1.4,0.5-1.9c0.8,2.1,1,4.2,1.5,6.2c0.2,0.8,0.3,1.6,0.6,2.3
		c0.5,1.4,1.3,1.6,2.6,0.9c0.4-0.3,0.9-0.6,1.3-0.9c0.6,0.3,0.7,1.1,1.3,1.2s1-0.3,1.4-0.6s0.6,0,0.9,0s0.7,0.1,0.7,0
		c1-1.7,1.8-0.3,2.6,0.1s1.6,1.1,2.3,0.5s0-1.7-0.4-2.5c-0.2-0.5-0.5-0.9-0.9-1.3c-0.9-0.9-0.6-1.7,0.1-2.7c2.1,1.7,3.7,3.5,3.8,6.2
		c0.1,2.1-0.9,3.1-3,2.8c-1.3-0.3-2.6-0.2-3.8,0.5c-0.2,0.1-0.4,0.2-0.6,0.1c-1.4-0.7-3.1,0.2-4.5-0.6c-0.6-0.4-1,0-1.4,0.2
		c-1.7,0.7-2.4,0.5-3.1-1.2c-0.5-0.8-0.8-1.8-0.8-2.8C141.9,147.5,141.8,147.2,141.7,147z"/>
	<path class="st1" d="M141.3,147.7c1,3.5-3.1,7.2-7.3,6.3c-1.1-0.2-2-1-2.5-2.1c-1.3-2.5-1-5.4,0.7-7.6c0.2,0.5,0.3,1.1,0.1,1.7
		c-0.1,0.8-0.1,1.7,0,2.5c0.1,0.5,0.3,1,0.6,1.4c1.3,1.6,5.7,1.1,6.7-0.7c0.3-0.9,0.2-1.8-0.3-2.6c-0.4-0.9-0.8-1.7,0-2.7
		c1,0.7,1.6,1.8,1.8,3C141,147.2,141.1,147.5,141.3,147.7z"/>
	<path class="st7" d="M160.6,154.3c0,0,0.1-0.1,0.1-0.1c4-1.7,5-3.2,4.7-7.5c-0.2-1.5-0.5-3-0.9-4.4c-0.4-1.4-0.4-1.4,0.7-2.8
		c1.4,4.2,2.9,8.1,1.3,12.4C165.6,154.5,163.3,155.4,160.6,154.3z"/>
	<path class="st7" d="M169.7,152.9c-0.5-1.5-0.8-3.1-1-4.6c-0.5-2.1-0.8-4.2-1.2-6.3c-0.2-1.2-0.2-1.4,0.6-2.7
		c1.4,1.2,2.1,3.1,1.7,4.9c0,0.7,0,1.3,0.2,1.9c0.5,2,0.5,4.1,0.2,6.2C170.1,152.5,170.1,152.8,169.7,152.9z"/>
	<path class="st7" d="M98.3,134.4c0.2,0.9-0.3,1.7-1.1,2c0,0-0.1,0-0.1,0c-2.2,1-4.4,2-6.6,2.9c-1.2,0.5-2.4,1.1-2.2,2.8
		c0.1,0.7-0.4,1.2-1.3,1.3c0-1.1,0.6-2.2,0-3.3c-0.2-0.3,0.3-0.5,0.6-0.7C91,137.6,94.5,135.9,98.3,134.4z"/>
	<path class="st7" d="M88.7,122.6c0.1-1.1,0.6-2.1,0-3.1c-0.2-0.3,0.1-0.6,0.4-0.8c3.4-1.6,6.8-3.1,10.2-4.7c0.2-0.1,0.5-0.2,0.7,0
		c0.2,0.3,0.1,0.6-0.1,0.9c-0.3,0.5-0.9,0.8-1.4,1c-2.3,1.2-4.8,2.2-7.2,3.1c-0.7,0.1-1.2,0.8-1.1,1.6
		C90.2,121.5,90.1,122.3,88.7,122.6z"/>
	<path class="st1" d="M156.4,140c5,1.8,8.2,5.5,8.2,9.4c-0.7,0.1-0.8-0.5-1-0.9c-1.3-2.2-3.1-4.1-5.2-5.4
		C156.9,142.2,156.8,141.9,156.4,140z"/>
	<path class="st1" d="M118.8,153.3c1,0.7,2,0.3,3-0.4c0.3-0.3,2.1,0.4,2.3,0.9c0.3,0.7-0.3,1.2-0.6,1.7s-0.6,0.7-1.1,0.4
		c-0.9-0.7-2.1-0.6-2.8,0.2c-0.6,0.5-1.2-0.3-1.7-0.6c-0.4-0.3-0.5-0.8-0.2-1.2c0,0,0,0,0,0C117.8,153.8,118,153.3,118.8,153.3z"/>
	<path class="st7" d="M110.9,120.1c-0.4-0.7-0.1-1.5,0.5-1.9c0.1-0.1,0.2-0.1,0.3-0.1l7.2-3.1c0.3-0.1,0.6-0.4,0.8,0
		c0.2,0.3,0.1,0.8-0.3,1c0,0,0,0-0.1,0c-0.6,0.3-1.2,0.6-1.7,0.9C115.5,117.9,113.3,119.2,110.9,120.1z"/>
	<path class="st7" d="M122,134.3c0,0.5-0.3,0.9-0.7,1.1c-2.5,1.3-5,2.5-7.5,3.8c-0.3,0.2-0.8,0.4-1-0.1c-0.1-0.4,0-0.8,0.3-1.1
		c0.2-0.2,0.4-0.3,0.6-0.4l7.7-3.4C121.6,134.1,121.8,134.1,122,134.3z"/>
	<path class="st7" d="M164.6,115.3c0.5,0,0.9,0,1,0.6s-0.1,1-0.7,1c-1.9,0.3-3.8,0.9-5.5,1.9c-0.2,0.2-0.5,0.1-0.7-0.1c0,0,0,0,0,0
		c-0.2-0.3-0.2-0.6,0.1-0.9c0,0,0,0,0,0C160.4,116.3,162.5,115.4,164.6,115.3z"/>
	<path class="st7" d="M146.8,116.7c-0.3,0-0.6-0.1-0.6-0.4c-0.1-0.3,0-0.5,0.2-0.7c1.7-1,3.4-1.9,5.2-2.6c0.3-0.1,0.6-0.1,0.7,0.2
		c0.1,0.2,0.1,0.5,0,0.8c-0.1,0.3-0.4,0.6-0.7,0.7c-1.4,0.7-2.8,1.3-4.3,2C147.1,116.6,147,116.7,146.8,116.7z"/>
	<path class="st7" d="M136.9,120.1c0-0.6,0.3-1.1,0.8-1.4c1.4-0.8,2.9-1.5,4.3-2.3c0.3-0.2,0.6-0.3,0.8,0.1c0.2,0.3,0.2,0.8-0.1,1.1
		c-0.4,0.3-0.8,0.5-1.2,0.6l-4.3,1.9C137.2,120.2,137.1,120.2,136.9,120.1z"/>
	<path class="st7" d="M154.1,115.7c0.5,0.7,0.3,1.7-0.5,2.2c-0.1,0.1-0.2,0.1-0.3,0.2c-0.5,0.2-1,0.3-1.5,0.4
		c-0.6,0.1-1.3,0.5-1.7-0.4c-0.3-0.8-0.1-1.7,0.6-2.3c0.2-0.1,0.4-0.2,0.5,0c0.8,2,1.7,0.3,2.5,0.1L154.1,115.7z"/>
	<path class="st7" d="M138.2,138.1c0.1,0.3-0.1,0.6-0.4,0.8c-1.5,0.8-3,1.5-4.6,2.2c-0.3,0.1-0.6,0.2-0.8-0.3
		c-0.1-0.2,0-0.5,0.2-0.7c1.6-1,3.2-1.9,5-2.6C138,137.5,138.2,137.7,138.2,138.1z"/>
	<path class="st7" d="M149.8,138.8c-0.1-0.8,0.6-1.2,0.6-1.8c0-0.2,0-0.2-0.2-0.3c-0.4-0.2-1.1,0.2-1.3-0.6
		c-0.1-0.5,0.8-1.3,1.5-1.3c0.6-0.1,1.2,0.3,1.4,0.9c0.2,0.6,0.1,1.3-0.4,1.8C151,138.1,150.5,138.6,149.8,138.8z"/>
	<path class="st7" d="M161.7,139.8c-0.1-0.6,0.5-1,0.5-1.6c0-0.2-0.1-0.2-0.2-0.3c-0.4-0.2-1.2,0.3-1.2-0.6s0.7-1,1.3-1.2
		c0.6-0.2,1.2,0.1,1.4,0.6c0,0,0,0,0,0.1C164,138.1,163.3,139.3,161.7,139.8z"/>
	<path class="st7" d="M107.7,140.7c-0.1-0.9,0.5-1.3,0.6-1.9c-0.3-0.6-1.1-0.2-1.5-0.8c0.2-0.8,1.1-1.4,1.9-1.2c0.6,0.1,1,0.6,1,1.2
		C109.8,139.4,109,140.2,107.7,140.7z"/>
	<path class="st7" d="M166.9,155.5c0-0.1-0.1,0.1-0.3,0.2c-1.2,0.8-2.5,1.5-3.8,2c-0.2,0.1-0.5,0-0.6-0.2c0,0,0,0,0-0.1
		c-0.1-0.2,0-0.5,0.2-0.7c1.2-0.8,2.5-1.4,3.8-1.9C166.5,154.7,166.7,154.9,166.9,155.5z"/>
	<path class="st1" d="M134.8,145.8c0.2-0.5-0.2-1.4,0.7-1.5c0.7-0.1,1.8,0.9,1.8,1.5c0,0.8-0.5,1.6-1.1,1.6c-0.8,0-1.4-0.6-1.4-1.4
		C134.8,145.9,134.8,145.8,134.8,145.8z"/>
	<path class="st7" d="M153.8,140.6c-0.2,0.5-0.2,1.2-0.9,1.3c-0.6,0.1-1.9-0.9-2-1.3c0-0.6,0.5-1.4,1-1.4
		C152.9,139.2,153.8,139.9,153.8,140.6z"/>
	<path class="st7" d="M143.7,139c-0.3-0.1-0.5-0.3-0.4-0.6c0-0.1,0.1-0.2,0.2-0.3c0.8-0.8,1.7-1.4,2.8-1.7c0.4-0.1,0.8,0.6,0.6,1
		C146,138.2,144.9,138.8,143.7,139z"/>
	<path class="st7" d="M141.3,147.7c-0.2-0.2-0.3-0.5-0.2-0.7l0.6,0.1c0.2,0.2,0.2,0.4,0.2,0.7L141.3,147.7z"/>
	<path class="st7" d="M96.9,91c-1.1-0.6-1.5-1-1.4-1.8c0-0.1,0.3-0.3,0.5-0.2C96.9,89.2,96.8,90,96.9,91z"/>
	<path class="st7" d="M100.8,103.6c0,0.4-0.3,0.5-0.5,0.4c-0.6-0.1-1-0.7-0.9-1.3c0-0.3,0.2-0.5,0.5-0.4
		C100.5,102.5,100.8,103,100.8,103.6z"/>
	<path class="st7" d="M93.4,82.4c0.7,0.2,0.8,0.8,0.8,1.3c0,0.3-0.1,0.5-0.4,0.5c-0.7-0.2-0.8-0.8-0.9-1.4
		C92.9,82.5,93.1,82.5,93.4,82.4z"/>
	<path class="st7" d="M98.8,96.9c-1,0-1.2-0.7-1.3-1.4c0-0.2,0.2-0.4,0.4-0.4c0.1,0,0.1,0,0.2,0C98.9,95.5,99,96.2,98.8,96.9z"/>
	<path class="st7" d="M89.1,72.9c-0.1,0.3-0.2,0.5-0.4,0.4c-0.6-0.1-1-0.7-0.9-1.3c0-0.3,0.2-0.6,0.5-0.4
		C88.7,71.9,89,72.3,89.1,72.9z"/>
	<path class="st7" d="M82.6,62c0.7,0.2,1.2,0.9,1,1.6c0,0.1-0.1,0.2-0.1,0.3c-0.7-0.2-1.2-0.9-1-1.6C82.5,62.2,82.5,62.1,82.6,62z"
		/>
	<path class="st7" d="M86.2,68.4c-0.1,0-0.2-0.1-0.3-0.1c-0.5-0.4-0.9-0.8-0.7-1.4c0.1-0.1,0.2-0.2,0.3-0.1
		C86.3,67.1,86.5,67.6,86.2,68.4z"/>
	<path class="st7" d="M91.8,79.1c-0.1,0-0.2,0-0.3,0c-0.6-0.4-1-0.8-0.7-1.6c0.1-0.2,0.3-0.2,0.5-0.1C91.7,77.6,91.8,77.8,91.8,79.1
		z"/>
	<path class="st7" d="M173.5,68.9c-0.4-0.9-0.1-1.4,0.7-1.7c0.2-0.1,0.5,0.1,0.5,0.3c0,0,0,0.1,0,0.1
		C174.8,68.4,174.3,68.8,173.5,68.9z"/>
	<path class="st7" d="M159.8,97.8c0.5,0.8,0.1,1.3-0.6,1.7c-0.2,0.1-0.4,0.1-0.5-0.1c0,0-0.1-0.1-0.1-0.2c-0.1-0.7,0.4-1.3,1-1.4
		C159.7,97.8,159.7,97.8,159.8,97.8z"/>
	<path class="st7" d="M171.2,73c-0.3,0-0.5-0.2-0.5-0.5c0-0.6,0.4-1.1,1-1.3c0.4-0.1,0.4,0.2,0.4,0.5
		C172.2,72.3,171.8,72.9,171.2,73z"/>
	<path class="st7" d="M169.7,75.9c0.1,1,0,1.6-0.9,1.8c-0.1,0-0.5-0.1-0.5-0.2C168.3,76.6,168.8,76.1,169.7,75.9z"/>
	<path class="st7" d="M167,81.8c-0.1,0.5-0.5,0.9-1.1,0.9c-0.2,0-0.3-0.1-0.3-0.3c0,0,0-0.1,0-0.1c0.2-0.6,0.4-1.1,1.1-1.1
		C166.9,81.3,167,81.4,167,81.8z"/>
	<path class="st7" d="M157.6,105.7c0,0.6-0.6,1.4-1.1,1.3c-0.2,0-0.4-0.2-0.3-0.4c0.1-0.6,0.2-1.2,0.9-1.3c0.2-0.1,0.4,0.1,0.5,0.3
		C157.6,105.6,157.6,105.6,157.6,105.7z"/>
	<path class="st7" d="M161,93.8c-0.3,0-0.5-0.1-0.5-0.3c0.1-0.6,0.3-1.1,1-1.2c0.3,0,0.3,0.2,0.3,0.3
		C161.9,93.2,161.6,93.7,161,93.8z"/>
	<path class="st7" d="M163.9,86.6c0.4,0.1,0.4,0.4,0.4,0.6c0,0.5-0.4,1-0.9,1c-0.3,0-0.4-0.3-0.3-0.6
		C163.1,87.2,163.4,86.8,163.9,86.6z"/>
	<path class="st7" d="M144.6,170.2c0-1,0.3-2,0.8-2.8c0.2-0.4,0.7-0.7,1.1-0.5c0.6,0.2,0.4,0.8,0.3,1.2c-0.2,0.9-0.3,1.8-0.3,2.7
		c0,0.5,0.2,1.3-0.7,1.3s-0.9-0.6-1.1-1.1C144.7,170.6,144.7,170.4,144.6,170.2z"/>
	<path class="st1" d="M143.6,179c0.1-0.9,0.3-1.7,0.7-2.4c0.2-0.4,0.7-0.6,1.2-0.4c0.4,0.1,0.3,0.6,0.2,0.9
		c-0.2,1.1-0.4,2.2-0.3,3.3c0,0.3,0.1,0.7-0.4,0.8c-0.4,0.1-0.8-0.1-1-0.4C143.7,180.2,143.6,179.6,143.6,179z"/>
	<path class="st1" d="M143.7,187.3c-0.1-1.1,0.2-2.1,0.9-3c0.2-0.3,0.5-0.4,0.9-0.3c0.4,0.1,0.4,0.5,0.3,0.8
		c-0.2,1.2-0.3,2.3-0.3,3.5c0,0.4,0,0.8-0.6,0.8s-0.8-0.1-0.9-0.6C143.8,188.1,143.7,187.7,143.7,187.3z"/>
	<path class="st7" d="M111.5,185.3c0,0.8-0.3,1.5-0.8,2.1c-0.3,0.3-0.7,0.4-1.1,0.3c-0.4-0.2-0.3-0.5-0.3-0.9
		c0.3-1.1,0.2-2.3-0.1-3.5c-0.1-0.3-0.2-0.7,0.1-0.9c0.4-0.2,0.9-0.1,1.2,0.3C111.2,183.5,111.5,184.4,111.5,185.3z"/>
	<path class="st7" d="M110.1,177.1c-0.1-0.6-0.1-1.2-0.1-1.8c0-0.3-0.1-0.7,0.3-0.9c0.3-0.1,0.7-0.1,0.9,0.1c1.1,0.8,1.2,4,0.1,4.8
		c-0.3,0.2-0.6,0.2-0.9,0.1c-0.3-0.1-0.3-0.4-0.3-0.6C110,178.3,110.1,177.7,110.1,177.1z"/>
	<path class="st7" d="M111.6,167.6c0.1,0.8-0.1,1.6-0.4,2.3c-0.2,0.4-0.7,0.6-1.1,0.5c-0.5-0.1-0.5-0.5-0.5-0.9l-0.1-3.3
		c0-0.3-0.1-0.7,0.3-0.8c0.4-0.1,0.8,0,1,0.3C111.3,166.3,111.6,166.9,111.6,167.6z"/>
</g>
</svg>
